PathFileType	4	(X/Y/Z)	 s06c0103.trc
DataRate	CameraRate	NumFrames	NumMarkers	Units	OrigDataRate	OrigDataStartFrame	OrigNumFrames
200	200	4	48	mm	200	1251	2000
Frame#	Time	racr			lacr			c7			jug			rlel			rdr			llel			ldr			s2			lic			ric			lasi			rasi			rpsi			lpsi			rgt			lgt			rth1			rth2			rth3			rth4			rlfc			rmfc			rsh1			rsh2			rsh3			rsh4			rlmal			rcal			rtoe			rmt5			lth1			lth2			lth4			lth3			llfc			lmfc			llmal			lcal			lmt5			lsh1			lsh2			lsh3			lsh4			ltoe			SBIKE			LBIKE			RBIKE			
		X1	Y1	Z1	X2	Y2	Z2	X3	Y3	Z3	X4	Y4	Z4	X5	Y5	Z5	X6	Y6	Z6	X7	Y7	Z7	X8	Y8	Z8	X9	Y9	Z9	X10	Y10	Z10	X11	Y11	Z11	X12	Y12	Z12	X13	Y13	Z13	X14	Y14	Z14	X15	Y15	Z15	X16	Y16	Z16	X17	Y17	Z17	X18	Y18	Z18	X19	Y19	Z19	X20	Y20	Z20	X21	Y21	Z21	X22	Y22	Z22	X23	Y23	Z23	X24	Y24	Z24	X25	Y25	Z25	X26	Y26	Z26	X27	Y27	Z27	X28	Y28	Z28	X29	Y29	Z29	X30	Y30	Z30	X31	Y31	Z31	X32	Y32	Z32	X33	Y33	Z33	X34	Y34	Z34	X35	Y35	Z35	X36	Y36	Z36	X37	Y37	Z37	X38	Y38	Z38	X39	Y39	Z39	X40	Y40	Z40	X41	Y41	Z41	X42	Y42	Z42	X43	Y43	Z43	X44	Y44	Z44	X45	Y45	Z45	X46	Y46	Z46	X47	Y47	Z47	X48	Y48	Z48	
1251	6.2550	515.772910	1291.238067	-61.438912	528.493307	1280.047872	-361.754497	533.519718	1341.482785	-211.952950	493.226196	1182.831757	-198.483334	526.915370	1046.634764	48.745411	718.064068	916.860917	-36.158252	481.858308	1022.617660	-447.350282	698.250367	934.691323	-394.778782	-29.745302	1167.829902	-210.219224	135.044949	1131.417528	-374.947577	116.824553	1112.581200	-42.146332	147.099156	1085.290392	-337.779361	145.333356	1070.238489	-77.421290	4.519832	1197.697951	-173.670322	3.350539	1205.126650	-232.439723	68.797782	1026.089578	-19.868853	106.831395	1100.994177	-399.845333	155.263967	918.982360	-6.488326	223.095815	859.544124	-12.461813	250.547639	776.898859	-21.781171	250.764064	880.876142	-26.387645	277.554366	678.165621	-41.692764	269.950788	660.223601	-153.826306	212.620870	575.354877	-20.954418	180.814240	497.012751	-44.258997	115.488032	439.284797	-49.403394	202.017087	487.994026	-77.719365	60.525557	383.793669	-57.124102	2.278000	405.893151	-107.201974	162.478673	181.230221	-87.265982	82.212790	246.844611	-26.452577	172.633742	1007.950047	-416.119917	255.136570	980.612625	-406.436468	273.134777	1009.002372	-389.203667	314.308055	913.615397	-403.649934	378.199277	814.718474	-373.574318	378.380434	793.552194	-259.838173	243.697060	461.211713	-371.186753	172.645974	420.397105	-323.582630	367.562220	411.956019	-402.525721	346.048436	708.930277	-395.449230	334.682845	624.216407	-378.201137	283.568457	551.767479	-380.115657	358.791752	618.532586	-347.278394	453.202308	429.618824	-345.230400	-204.816330	867.154169	-203.543249	-52.319316	83.748317	-410.378983	-50.992107	80.619854	-12.654052	
1252	6.2600	516.194507	1290.201570	-61.362416	529.511041	1278.589219	-361.802667	534.503087	1340.595733	-211.572908	493.636071	1182.069233	-198.518099	527.108656	1045.891631	49.637003	718.296649	916.701815	-35.938385	482.175872	1020.935745	-447.148022	698.617054	933.885694	-394.293271	-29.168845	1166.315692	-209.948457	136.106431	1128.709535	-375.091954	118.059753	1111.612461	-42.304307	148.605164	1083.143390	-337.268407	146.249692	1069.506974	-77.689289	5.274654	1196.396899	-173.819056	4.151101	1203.265619	-232.830180	71.278980	1026.058402	-18.884569	107.065600	1096.524431	-400.453295	158.873197	921.090730	-6.498485	227.977618	862.954981	-12.178586	257.184862	780.763061	-20.486581	255.808250	885.402633	-25.637506	284.470086	682.071236	-40.863186	276.335371	664.046755	-152.762745	217.067632	580.522619	-19.986198	182.972249	503.257025	-43.636025	116.050277	447.316290	-48.765452	203.717424	493.850599	-77.173933	59.140775	393.513864	-56.591706	1.270761	416.648558	-106.658380	157.787262	189.551780	-87.116625	78.512598	256.270681	-26.191524	172.410723	1002.131161	-416.174198	254.298806	973.091202	-406.444266	272.986369	1001.121152	-389.462897	311.948113	904.857990	-403.640402	373.977662	803.919965	-374.024471	374.255716	782.210979	-260.463544	246.671015	449.247496	-371.007132	176.437083	407.572374	-323.131759	371.081536	401.861474	-402.315583	343.565126	697.704514	-395.420608	334.276446	612.640509	-377.766741	284.613461	539.142334	-379.154112	358.471051	607.725407	-347.029037	456.733568	420.595003	-345.243007	-204.711784	867.200613	-203.444911	-52.261185	83.744830	-410.344411	-50.879977	80.531785	-12.659446	
1253	6.2650	516.631936	1289.219534	-61.573975	530.481254	1277.178877	-362.001705	535.343497	1339.953149	-211.434369	494.369620	1181.421663	-198.938453	527.176662	1045.145567	50.458731	718.505412	916.550851	-35.797500	482.353713	1019.162716	-447.059366	698.837400	933.525223	-394.097706	-28.603588	1164.612530	-209.662624	137.004410	1125.871564	-375.226666	119.369048	1110.819130	-42.544462	150.000107	1080.926584	-336.719062	147.511495	1069.041842	-77.954275	5.991254	1194.888239	-173.910708	4.792223	1201.354203	-233.168985	73.962612	1026.001412	-17.750788	107.275698	1091.812609	-401.037474	162.502632	923.458468	-6.175172	232.913209	866.294004	-12.105980	263.585887	784.649700	-19.384918	260.259422	889.266851	-25.723699	291.473054	686.046676	-39.931215	282.661984	667.894430	-151.485464	221.798524	585.756543	-18.946203	185.352554	509.642464	-42.860734	116.861251	455.676006	-48.019453	205.450932	499.755897	-76.742927	58.143849	403.512051	-55.967355	0.549444	427.939814	-105.949882	153.733429	198.222997	-87.039106	75.426566	265.914171	-25.922351	172.117937	996.052431	-416.154770	253.382848	965.261785	-406.537480	272.789888	993.055090	-389.945322	309.416608	895.917688	-403.473628	369.567429	793.244187	-374.632671	370.770649	771.256057	-261.783025	249.414978	437.465838	-370.859793	179.620751	395.269480	-322.907009	374.288228	391.655558	-402.306371	341.015044	686.469168	-395.591024	333.634162	601.332874	-377.590602	285.646790	526.991528	-378.625092	358.003265	597.235826	-347.046787	459.790722	411.033230	-345.248827	-204.634676	867.248154	-203.344063	-52.227788	83.772988	-410.306837	-50.874134	80.599747	-12.607039	
1254	6.2700	517.006313	1288.404914	-61.951700	531.276147	1275.766778	-362.304289	536.007442	1339.385398	-211.709362	495.112572	1180.818494	-199.567146	527.162926	1044.575090	51.159274	718.718451	916.538397	-35.601757	482.347836	1017.442406	-447.168396	698.933557	933.232832	-393.797116	-27.946127	1162.700819	-209.310751	137.738803	1122.963528	-375.374684	120.817817	1109.798848	-42.685616	151.307045	1078.677258	-336.194219	148.650642	1067.871219	-78.271329	6.662581	1192.662964	-173.927741	5.761557	1199.335032	-233.540501	76.655375	1026.088371	-16.409308	107.535857	1087.001795	-401.585851	166.296833	925.694744	-6.327262	238.182352	869.779755	-11.276425	270.024636	789.002423	-18.387090	264.733377	893.191399	-25.884669	298.580921	690.209266	-38.812248	288.908985	671.874664	-150.013552	227.043348	591.053780	-17.859567	188.020237	516.408916	-41.848035	118.003536	464.110709	-47.306836	207.620083	505.736966	-76.173554	57.718289	413.682039	-55.365200	0.250355	438.865585	-105.579563	150.359546	207.211179	-86.936001	72.922784	275.848708	-25.688059	171.797149	989.729659	-416.139078	252.350181	957.240802	-406.654102	272.477703	984.705098	-390.715243	306.650870	886.469902	-402.854692	365.309932	782.678537	-375.285698	367.987192	761.055635	-262.602792	251.715653	425.911140	-370.705855	182.296781	383.408217	-322.735092	376.940757	380.630324	-401.453660	338.533200	675.580284	-396.311239	332.834130	590.190527	-377.448496	286.488743	514.659476	-377.663784	357.462946	586.814110	-347.090754	462.364427	401.128882	-345.267394	-204.567375	867.324673	-203.213487	-52.222403	83.759267	-410.243230	-50.738107	80.299956	-12.801612	
